<svg id="visual" viewBox="0 0 960 300" width="960" height="300" xmlns="http://www.w3.org/2000/svg" xmlns:xlink="http://www.w3.org/1999/xlink" version="1.1"><path d="M0 25L14.5 25C29 25 58 25 87.2 24.5C116.3 24 145.7 23 174.8 24.5C204 26 233 30 262 32.5C291 35 320 36 349 33.5C378 31 407 25 436.2 25C465.3 25 494.7 31 523.8 32C553 33 582 29 611 32.5C640 36 669 47 698 51C727 55 756 52 785.2 52C814.3 52 843.7 55 872.8 54C902 53 931 48 945.5 45.5L960 43L960 0L945.5 0C931 0 902 0 872.8 0C843.7 0 814.3 0 785.2 0C756 0 727 0 698 0C669 0 640 0 611 0C582 0 553 0 523.8 0C494.7 0 465.3 0 436.2 0C407 0 378 0 349 0C320 0 291 0 262 0C233 0 204 0 174.8 0C145.7 0 116.3 0 87.2 0C58 0 29 0 14.5 0L0 0Z" fill="#ddd6fe"></path><path d="M0 91L14.5 97.5C29 104 58 117 87.2 126.5C116.3 136 145.7 142 174.8 138C204 134 233 120 262 112C291 104 320 102 349 103C378 104 407 108 436.2 108.5C465.3 109 494.7 106 523.8 104C553 102 582 101 611 100.5C640 100 669 100 698 103.5C727 107 756 114 785.2 114C814.3 114 843.7 107 872.8 100C902 93 931 86 945.5 82.5L960 79L960 41L945.5 43.5C931 46 902 51 872.8 52C843.7 53 814.3 50 785.2 50C756 50 727 53 698 49C669 45 640 34 611 30.5C582 27 553 31 523.8 30C494.7 29 465.3 23 436.2 23C407 23 378 29 349 31.5C320 34 291 33 262 30.5C233 28 204 24 174.8 22.5C145.7 21 116.3 22 87.2 22.5C58 23 29 23 14.5 23L0 23Z" fill="#bdb1fa"></path><path d="M0 118L14.5 126.5C29 135 58 152 87.2 160.5C116.3 169 145.7 169 174.8 164.5C204 160 233 151 262 147C291 143 320 144 349 147.5C378 151 407 157 436.2 157C465.3 157 494.7 151 523.8 147C553 143 582 141 611 138C640 135 669 131 698 135.5C727 140 756 153 785.2 155.5C814.3 158 843.7 150 872.8 144C902 138 931 134 945.5 132L960 130L960 77L945.5 80.5C931 84 902 91 872.8 98C843.7 105 814.3 112 785.2 112C756 112 727 105 698 101.5C669 98 640 98 611 98.5C582 99 553 100 523.8 102C494.7 104 465.3 107 436.2 106.5C407 106 378 102 349 101C320 100 291 102 262 110C233 118 204 132 174.8 136C145.7 140 116.3 134 87.2 124.5C58 115 29 102 14.5 95.5L0 89Z" fill="#9d8df4"></path><path d="M0 247L14.5 242C29 237 58 227 87.2 222C116.3 217 145.7 217 174.8 220C204 223 233 229 262 235.5C291 242 320 249 349 248.5C378 248 407 240 436.2 240C465.3 240 494.7 248 523.8 251.5C553 255 582 254 611 255C640 256 669 259 698 261C727 263 756 264 785.2 263C814.3 262 843.7 259 872.8 254.5C902 250 931 244 945.5 241L960 238L960 128L945.5 130C931 132 902 136 872.8 142C843.7 148 814.3 156 785.2 153.5C756 151 727 138 698 133.5C669 129 640 133 611 136C582 139 553 141 523.8 145C494.7 149 465.3 155 436.2 155C407 155 378 149 349 145.5C320 142 291 141 262 145C233 149 204 158 174.8 162.5C145.7 167 116.3 167 87.2 158.5C58 150 29 133 14.5 124.5L0 116Z" fill="#7a6aed"></path><path d="M0 301L14.5 301C29 301 58 301 87.2 301C116.3 301 145.7 301 174.8 301C204 301 233 301 262 301C291 301 320 301 349 301C378 301 407 301 436.2 301C465.3 301 494.7 301 523.8 301C553 301 582 301 611 301C640 301 669 301 698 301C727 301 756 301 785.2 301C814.3 301 843.7 301 872.8 301C902 301 931 301 945.5 301L960 301L960 236L945.5 239C931 242 902 248 872.8 252.5C843.7 257 814.3 260 785.2 261C756 262 727 261 698 259C669 257 640 254 611 253C582 252 553 253 523.8 249.5C494.7 246 465.3 238 436.2 238C407 238 378 246 349 246.5C320 247 291 240 262 233.5C233 227 204 221 174.8 218C145.7 215 116.3 215 87.2 220C58 225 29 235 14.5 240L0 245Z" fill="#4f46e5"></path></svg>